# xmcd
#
# Track frame offsets: 
#        210
#        14832
#        30712
#        44501
#        57052
#        70087
#        82844
#        94434
#        106285
#        117079
#        127439
#        137576
#        148324
#        159600
#        172581
#        186545
#        200026
#        211125
#        221982
#        235659
#        248884
#        262367
#        276304
#        289826
#
# Disc length: 4032 seconds
#
# Revision: 0
# Processed by: cddbd v1.5.2PL0 Copyright (c) Steve Scherf et al.
# Submitted via: ExactAudioCopyFreeDBPlugin 1.0
#
DISCID=820fbe18
DTITLE=Various Artist - Piano Blues Vol. 6 (1933-1938)
DYEAR=1999
DGENRE=Blues
TTITLE0=Whistlin' Rufus - Mama I Hope You're Satisfied
TTITLE1=Whistlin' Rufus - (Who's Gonna Do Your) Sweet Jelly Rollin'
TTITLE2=Whistlin' Rufus - Tired of Sleepin' by Myself
TTITLE3=Whistlin' Rufus - Sweet Thing
TTITLE4=Earl Thomas - Burying Ground
TTITLE5=Earl Thomas - Sugar Girl Blues
TTITLE6=Earl Thomas - Bonus Men
TTITLE7=Earl Thomas - Rent Day Blues
TTITLE8=Ben Abney (Peg Leg) - What Makes Your Heart So Hard?
TTITLE9=Ben Abney (Peg Leg) - What Makes Your Heart So Hard? - Part 2
TTITLE10=Ben Abney (Peg Leg) - 'Way Down in Town
TTITLE11=Ben Abney (Peg Leg) - I'm Rattlesnakin' Daddy
TTITLE12=Ben Abney (Peg Leg) - Ev'rything I've Got Belongs to You
TTITLE13=Ben Abney (Peg Leg) - Dirty Double Crosser
TTITLE14=Curtis Henry - G-Man Blues
TTITLE15=Curtis Henry - County Jail Blues
TTITLE16=Curtis Henry - I Love My Baby
TTITLE17=Curtis Henry - The Worried Blues
TTITLE18=St. Louis Red Mike Bailey - Red Mike Blues
TTITLE19=St. Louis Red Mike Bailey - Hell Ain't but a Mile and a Quart
TTITLE19=er
TTITLE20=St. Louis Red Mike Bailey - Wash My Hands Nice and Clean
TTITLE21=St. Louis Red Mike Bailey - Chimney Higher
TTITLE22=St. Louis Red Mike Bailey - Gamblin' Man Blues
TTITLE23=St. Louis Red Mike Bailey - Just Around the Corner
EXTD=
EXTT0=
EXTT1=
EXTT2=
EXTT3=
EXTT4=
EXTT5=
EXTT6=
EXTT7=
EXTT8=
EXTT9=
EXTT10=
EXTT11=
EXTT12=
EXTT13=
EXTT14=
EXTT15=
EXTT16=
EXTT17=
EXTT18=
EXTT19=
EXTT20=
EXTT21=
EXTT22=
EXTT23=
PLAYORDER=
